<?xml version="1.0" encoding="UTF-8" standalone="no"?>
<!-- Created with Inkscape (http://www.inkscape.org/) -->

<svg
   xmlns:dc="http://purl.org/dc/elements/1.1/"
   xmlns:cc="http://creativecommons.org/ns#"
   xmlns:rdf="http://www.w3.org/1999/02/22-rdf-syntax-ns#"
   xmlns:svg="http://www.w3.org/2000/svg"
   xmlns="http://www.w3.org/2000/svg"
   xmlns:xlink="http://www.w3.org/1999/xlink"
   xmlns:sodipodi="http://sodipodi.sourceforge.net/DTD/sodipodi-0.dtd"
   xmlns:inkscape="http://www.inkscape.org/namespaces/inkscape"
   version="1.1"
   id="svg2"
   width="19.031864"
   height="11.015102"
   viewBox="0 0 19.031864 11.015102"
   sodipodi:docname="slider-vert-left-hover.svg"
   inkscape:version="0.92.3 (2405546, 2018-03-11)">
  <sodipodi:namedview
     pagecolor="#ffffff"
     bordercolor="#666666"
     borderopacity="1"
     objecttolerance="10"
     gridtolerance="10"
     guidetolerance="10"
     inkscape:pageopacity="0"
     inkscape:pageshadow="2"
     inkscape:window-width="1920"
     inkscape:window-height="991"
     id="namedview4"
     showgrid="false"
     showguides="true"
     inkscape:guide-bbox="true"
     inkscape:measure-start="9.45313,9.57812"
     inkscape:measure-end="8.45313,9.57813"
     inkscape:zoom="45.254834"
     inkscape:cx="8.6506432"
     inkscape:cy="0.99184547"
     inkscape:window-x="0"
     inkscape:window-y="0"
     inkscape:window-maximized="1"
     inkscape:current-layer="svg2" />
  <metadata
     id="metadata8">
    <rdf:RDF>
      <cc:Work
         rdf:about="">
        <dc:format>image/svg+xml</dc:format>
        <dc:type
           rdf:resource="http://purl.org/dc/dcmitype/StillImage" />
        <dc:title></dc:title>
      </cc:Work>
    </rdf:RDF>
  </metadata>
  <defs
     id="defs6">
    <linearGradient
       id="linearGradient857"
       inkscape:collect="always">
      <stop
         id="stop853"
         offset="0"
         style="stop-color:#b0dff9;stop-opacity:1" />
      <stop
         style="stop-color:#bce6fd;stop-opacity:1"
         offset="0.14180042"
         id="stop887" />
      <stop
         style="stop-color:#bce5fd;stop-opacity:1"
         offset="0.33367684"
         id="stop863" />
      <stop
         id="stop865"
         offset="0.47376096"
         style="stop-color:#dcf2fc;stop-opacity:1" />
      <stop
         id="stop855"
         offset="1"
         style="stop-color:#e7f6fd;stop-opacity:1" />
    </linearGradient>
    <linearGradient
       gradientUnits="userSpaceOnUse"
       y2="-0.020842303"
       x2="7.1760292"
       y1="22.131414"
       x1="7.1760292"
       id="linearGradient859"
       xlink:href="#linearGradient857"
       inkscape:collect="always" />
  </defs>
  <g
     id="g5626"
     transform="matrix(0,-0.74967724,-0.74967724,0,19.019841,10.995266)">
    <path
       sodipodi:nodetypes="ssccccscs"
       inkscape:connector-curvature="0"
       id="path5630"
       d="M 3.5880145,21.599162 C 0.4230595,18.29566 0,16.801503 0,8.927041 L 1.3333325,1.3333326 7.3333335,0 13.332528,1.3333326 14.666667,9.0838779 c -1e-6,9.5940861 -0.358064,9.4269251 -3.745319,12.6721211 l -3.7453189,3.588242 z"
       style="fill:url(#linearGradient859);fill-opacity:1;stroke-width:1.33333325" />
  </g>
  <path
     sodipodi:nodetypes="cccccccc"
     inkscape:connector-curvature="0"
     id="rect869"
     d="m 17.525113,8.7886414 c 0.0011,-6.232198 1.4e-5,-1.090572 0.0011,-7.3305806 -3.953179,0.0015 -8.752764,0.019435 -12.166387,0.015625 L 1.770341,5.6363349 5.288719,9.4845724 16.840113,9.4731854 c 0.771949,0.08381 0.68501,-0.684546 0.68501,-0.684546 z"
     style="opacity:1;fill:none;fill-opacity:0;stroke:#41f7fd;stroke-width:1.07567608;stroke-miterlimit:4;stroke-dasharray:none;stroke-opacity:1;paint-order:stroke fill markers" />
  <path
     sodipodi:nodetypes="csscssccccsscssccss"
     inkscape:connector-curvature="0"
     id="path5628"
     d="m 5.02942,11.015102 h 12.0185 c 0.984376,0 1.963853,-0.999569 1.96832,-1.9995686 l 0.01563,-3.4980643 -0.0039,-3.5052723 C 19.026845,1.0200093 18.032292,0.01138134 17.04401,0.01202334 L 4.127073,0.01510334 0,4.8935661 0.03186,5.6353846 Z M 17.043098,1.0200093 c 0.488767,0 0.989197,0.4872807 0.989197,0.9959816 l 0,3.5014782 0,3.4947693 c 0,0.498958 -0.50043,1.0032946 -0.989197,1.0032946 H 5.02942 L 1.024499,5.6353966 C 3.621516,2.6735261 5.028913,1.0200093 5.028913,1.0200093 c 4.0324619,-6.04e-4 8.009457,0 12.014185,0 z"
     style="opacity:1;fill:#338eba;fill-opacity:1;stroke-width:0.99956959" />
</svg>
