<?xml version="1.0" encoding="UTF-8" standalone="no"?>
<!-- Created with Inkscape (http://www.inkscape.org/) -->

<svg
   xmlns:dc="http://purl.org/dc/elements/1.1/"
   xmlns:cc="http://creativecommons.org/ns#"
   xmlns:rdf="http://www.w3.org/1999/02/22-rdf-syntax-ns#"
   xmlns:svg="http://www.w3.org/2000/svg"
   xmlns="http://www.w3.org/2000/svg"
   xmlns:sodipodi="http://sodipodi.sourceforge.net/DTD/sodipodi-0.dtd"
   xmlns:inkscape="http://www.inkscape.org/namespaces/inkscape"
   version="1.1"
   id="svg1370"
   width="11"
   height="19"
   viewBox="0 0 14.666667 25.34424"
   sodipodi:docname="slider-horiz-top-insensitive.svg"
   inkscape:version="0.92.3 (2405546, 2018-03-11)">
  <metadata
     id="metadata1376">
    <rdf:RDF>
      <cc:Work
         rdf:about="">
        <dc:format>image/svg+xml</dc:format>
        <dc:type
           rdf:resource="http://purl.org/dc/dcmitype/StillImage" />
        <dc:title />
      </cc:Work>
    </rdf:RDF>
  </metadata>
  <defs
     id="defs1374" />
  <sodipodi:namedview
     pagecolor="#ffffff"
     bordercolor="#666666"
     borderopacity="1"
     objecttolerance="10"
     gridtolerance="10"
     guidetolerance="10"
     inkscape:pageopacity="0"
     inkscape:pageshadow="2"
     inkscape:window-width="850"
     inkscape:window-height="518"
     id="namedview1372"
     showgrid="false"
     showguides="true"
     inkscape:guide-bbox="true"
     inkscape:zoom="8.0000004"
     inkscape:cx="-7.4303389"
     inkscape:cy="22.85841"
     inkscape:window-x="827"
     inkscape:window-y="274"
     inkscape:window-maximized="0"
     inkscape:current-layer="svg1370" />
  <g
     id="g5626"
     transform="rotate(180,7.3333338,12.672121)">
    <path
       style="fill:#9b9b9b;stroke-width:1.33333325"
       d="M 3.5880145,21.599162 C 0.4230595,18.29566 0,16.801503 0,8.927041 V 0 h 7.3333335 7.3333335 v 9.0838779 c 0,8.2154321 -0.358064,9.4269251 -3.745319,12.6721211 l -3.7453189,3.588242 z"
       id="path5630"
       inkscape:connector-curvature="0" />
    <path
       style="fill:#767676;stroke-width:1.33333325"
       d="M 1.2788931e-8,18.677965 0,0 h 7.3333335 7.3333335 c -0.01687,7.6674039 0,11.182359 0,18.677965 L 7.1760291,25.344241 Z M 13.333334,1.333333 l -6.0000005,3e-7 H 1.3333334 l -4e-7,17.3446317 5.8122165,5.336984 c 3.9508605,-3.46418 6.1869785,-5.336308 6.1869785,-5.336308 8.06e-4,-5.378931 8.06e-4,-12.5650887 8.06e-4,-17.345308 z"
       id="path5628"
       inkscape:connector-curvature="0"
       sodipodi:nodetypes="ccccccccccccsc" />
  </g>
</svg>
