<?xml version="1.0" encoding="UTF-8" standalone="no"?>
<!-- Created with Inkscape (http://www.inkscape.org/) -->

<svg
   xmlns:dc="http://purl.org/dc/elements/1.1/"
   xmlns:cc="http://creativecommons.org/ns#"
   xmlns:rdf="http://www.w3.org/1999/02/22-rdf-syntax-ns#"
   xmlns:svg="http://www.w3.org/2000/svg"
   xmlns="http://www.w3.org/2000/svg"
   xmlns:xlink="http://www.w3.org/1999/xlink"
   xmlns:sodipodi="http://sodipodi.sourceforge.net/DTD/sodipodi-0.dtd"
   xmlns:inkscape="http://www.inkscape.org/namespaces/inkscape"
   version="1.1"
   id="svg2"
   width="10.995267"
   height="19"
   viewBox="0 0 10.995267 19"
   sodipodi:docname="slider-horiz-hover.svg"
   inkscape:version="0.92.3 (2405546, 2018-03-11)">
  <sodipodi:namedview
     pagecolor="#ffffff"
     bordercolor="#666666"
     borderopacity="1"
     objecttolerance="10"
     gridtolerance="10"
     guidetolerance="10"
     inkscape:pageopacity="0"
     inkscape:pageshadow="2"
     inkscape:window-width="1920"
     inkscape:window-height="991"
     id="namedview4"
     showgrid="false"
     showguides="true"
     inkscape:guide-bbox="true"
     inkscape:measure-start="9.45313,9.57812"
     inkscape:measure-end="8.45313,9.57813"
     inkscape:zoom="64"
     inkscape:cx="9.184206"
     inkscape:cy="4.5302878"
     inkscape:window-x="0"
     inkscape:window-y="0"
     inkscape:window-maximized="1"
     inkscape:current-layer="svg2" />
  <metadata
     id="metadata8">
    <rdf:RDF>
      <cc:Work
         rdf:about="">
        <dc:format>image/svg+xml</dc:format>
        <dc:type
           rdf:resource="http://purl.org/dc/dcmitype/StillImage" />
        <dc:title></dc:title>
      </cc:Work>
    </rdf:RDF>
  </metadata>
  <defs
     id="defs6">
    <linearGradient
       id="linearGradient857"
       inkscape:collect="always">
      <stop
         id="stop853"
         offset="0"
         style="stop-color:#b0dff9;stop-opacity:1" />
      <stop
         style="stop-color:#bce6fd;stop-opacity:1"
         offset="0.14180042"
         id="stop887" />
      <stop
         style="stop-color:#bce5fd;stop-opacity:1"
         offset="0.33367684"
         id="stop863" />
      <stop
         id="stop865"
         offset="0.47376096"
         style="stop-color:#dcf2fc;stop-opacity:1" />
      <stop
         id="stop855"
         offset="1"
         style="stop-color:#e7f6fd;stop-opacity:1" />
    </linearGradient>
    <linearGradient
       gradientUnits="userSpaceOnUse"
       y2="-0.020842303"
       x2="7.1760292"
       y1="22.131414"
       x1="7.1760292"
       id="linearGradient859"
       xlink:href="#linearGradient857"
       inkscape:collect="always" />
  </defs>
  <g
     id="g5626"
     transform="scale(0.74967724)">
    <path
       sodipodi:nodetypes="ssccccscs"
       inkscape:connector-curvature="0"
       id="path5630"
       d="M 3.5880145,21.599162 C 0.4230595,18.29566 0,16.801503 0,8.927041 L 1.3333325,1.3333326 7.3333335,0 13.332528,1.3333326 14.666667,9.0838779 c -1e-6,9.5940861 -0.358064,9.4269251 -3.745319,12.6721211 l -3.7453189,3.588242 z"
       style="fill:url(#linearGradient859);stroke-width:1.33333325;fill-opacity:1" />
  </g>
  <path
     sodipodi:nodetypes="cccccccc"
     inkscape:connector-curvature="0"
     id="rect869"
     d="m 2.227399,1.522328 c 6.2321982,-0.00112 1.090572,-1.39e-5 7.3305808,-0.00112 -0.0015,3.9531785 -0.019435,8.752764 -0.015625,12.166387 L 5.3797057,17.2771 1.5314684,13.758722 1.5428554,2.2073277 C 1.4590435,1.4353791 2.2274009,1.522318 2.2274009,1.522318 Z"
     style="opacity:1;fill:none;fill-opacity:0;stroke:#41f7fd;stroke-width:1.07567608;stroke-miterlimit:4;stroke-dasharray:none;stroke-opacity:1;paint-order:stroke fill markers" />
  <path
     sodipodi:nodetypes="csscssccccsscssccss"
     inkscape:connector-curvature="0"
     id="path5628"
     d="M 2e-8,14.002444 0,1.9839442 C 0,0.99956853 0.99956907,0.02009086 1.999569,0.01562418 L 5.4976332,-5.2e-7 l 3.5052723,0.003906 c 0.9921875,0.001106 2.0008155,0.9956631 2.0001735,1.98394502 L 11,14.904788 6.1215372,19.031861 5.3797187,19 Z M 9.995093,1.9887661 c 0,-0.4887666 -0.4872807,-0.98919689 -0.9959816,-0.98919689 l -3.5014782,-1.5e-7 -3.4947692,1.5e-7 c -0.4989577,0 -1.00329503,0.50043029 -1.00329503,0.98919689 l 4e-7,12.0136779 4.38013633,4.004922 c 2.9618705,-2.597017 4.6153873,-4.004415 4.6153873,-4.004415 6.04e-4,-4.0324617 0,-8.0094564 0,-12.0141849 z"
     style="opacity:1;fill:#338eba;fill-opacity:1;stroke-width:0.99956959" />
</svg>
