<?xml version="1.0" encoding="UTF-8" standalone="no"?>
<!-- Created with Inkscape (http://www.inkscape.org/) -->

<svg
   xmlns:dc="http://purl.org/dc/elements/1.1/"
   xmlns:cc="http://creativecommons.org/ns#"
   xmlns:rdf="http://www.w3.org/1999/02/22-rdf-syntax-ns#"
   xmlns:svg="http://www.w3.org/2000/svg"
   xmlns="http://www.w3.org/2000/svg"
   xmlns:xlink="http://www.w3.org/1999/xlink"
   xmlns:sodipodi="http://sodipodi.sourceforge.net/DTD/sodipodi-0.dtd"
   xmlns:inkscape="http://www.inkscape.org/namespaces/inkscape"
   version="1.1"
   id="svg2"
   width="10.995267"
   height="19"
   viewBox="0 0 10.995267 19"
   sodipodi:docname="slider-horiz-top-hover.svg"
   inkscape:version="0.92.3 (2405546, 2018-03-11)">
  <sodipodi:namedview
     pagecolor="#ffffff"
     bordercolor="#666666"
     borderopacity="1"
     objecttolerance="10"
     gridtolerance="10"
     guidetolerance="10"
     inkscape:pageopacity="0"
     inkscape:pageshadow="2"
     inkscape:window-width="1920"
     inkscape:window-height="991"
     id="namedview4"
     showgrid="false"
     showguides="true"
     inkscape:guide-bbox="true"
     inkscape:measure-start="9.45313,9.57812"
     inkscape:measure-end="8.45313,9.57813"
     inkscape:zoom="64"
     inkscape:cx="6.1451435"
     inkscape:cy="4.4677878"
     inkscape:window-x="0"
     inkscape:window-y="0"
     inkscape:window-maximized="1"
     inkscape:current-layer="svg2" />
  <metadata
     id="metadata8">
    <rdf:RDF>
      <cc:Work
         rdf:about="">
        <dc:format>image/svg+xml</dc:format>
        <dc:type
           rdf:resource="http://purl.org/dc/dcmitype/StillImage" />
        <dc:title />
      </cc:Work>
    </rdf:RDF>
  </metadata>
  <defs
     id="defs6">
    <linearGradient
       id="linearGradient857"
       inkscape:collect="always">
      <stop
         id="stop853"
         offset="0"
         style="stop-color:#b0dff9;stop-opacity:1" />
      <stop
         style="stop-color:#bce6fd;stop-opacity:1"
         offset="0.14180042"
         id="stop887" />
      <stop
         style="stop-color:#bce5fd;stop-opacity:1"
         offset="0.33367684"
         id="stop863" />
      <stop
         id="stop865"
         offset="0.47376096"
         style="stop-color:#dcf2fc;stop-opacity:1" />
      <stop
         id="stop855"
         offset="1"
         style="stop-color:#e7f6fd;stop-opacity:1" />
    </linearGradient>
    <linearGradient
       gradientUnits="userSpaceOnUse"
       y2="-0.020842303"
       x2="7.1760292"
       y1="22.131414"
       x1="7.1760292"
       id="linearGradient859"
       xlink:href="#linearGradient857"
       inkscape:collect="always" />
  </defs>
  <g
     id="g5626"
     transform="matrix(0.74967724,0,0,-0.74967724,0,19.03186)">
    <path
       sodipodi:nodetypes="ssccccscs"
       inkscape:connector-curvature="0"
       id="path5630"
       d="M 3.5880145,21.599162 C 0.4230595,18.29566 0,16.801503 0,8.927041 L 1.3333325,1.3333326 7.3333335,0 13.332528,1.3333326 14.666667,9.0838779 c -1e-6,9.5940861 -0.358064,9.4269251 -3.745319,12.6721211 l -3.7453189,3.588242 z"
       style="fill:url(#linearGradient859);fill-opacity:1;stroke-width:1.33333325" />
  </g>
  <path
     sodipodi:nodetypes="cccccccc"
     inkscape:connector-curvature="0"
     id="rect869"
     d="m 2.227399,17.509532 c 6.2321982,0.0011 1.090572,1.4e-5 7.3305808,0.0011 -0.0015,-3.953178 -0.019435,-8.7527635 -0.015625,-12.1663865 L 5.3797057,1.7547605 1.5314684,5.2731385 1.5428554,16.824533 c -0.083812,0.771948 0.6845455,0.685009 0.6845455,0.685009 z"
     style="opacity:1;fill:none;fill-opacity:0;stroke:#41f7fd;stroke-width:1.07567608;stroke-miterlimit:4;stroke-dasharray:none;stroke-opacity:1;paint-order:stroke fill markers" />
  <path
     sodipodi:nodetypes="csscssccccsscssccss"
     inkscape:connector-curvature="0"
     id="path5628"
     d="M 2e-8,5.0294165 0,17.047916 c 0,0.984376 0.99956907,1.963854 1.999569,1.96832 l 3.4980642,0.01563 3.5052723,-0.0039 C 9.995093,19.026849 11.003721,18.032292 11.003079,17.04401 L 11,4.1270725 6.1215372,-5.2e-7 5.3797187,0.03186048 Z M 9.995093,17.043094 c 0,0.488767 -0.4872807,0.989197 -0.9959816,0.989197 l -3.5014782,0 -3.4947692,0 c -0.4989577,0 -1.00329503,-0.50043 -1.00329503,-0.989197 l 4e-7,-12.0136775 4.38013633,-4.004922 c 2.9618705,2.597017 4.6153873,4.004415 4.6153873,4.004415 6.04e-4,4.0324617 0,8.0094565 0,12.0141845 z"
     style="opacity:1;fill:#338eba;fill-opacity:1;stroke-width:0.99956959" />
</svg>
