<?xml version="1.0" encoding="UTF-8" standalone="no"?>
<!-- Created with Inkscape (http://www.inkscape.org/) -->

<svg
   xmlns:dc="http://purl.org/dc/elements/1.1/"
   xmlns:cc="http://creativecommons.org/ns#"
   xmlns:rdf="http://www.w3.org/1999/02/22-rdf-syntax-ns#"
   xmlns:svg="http://www.w3.org/2000/svg"
   xmlns="http://www.w3.org/2000/svg"
   xmlns:xlink="http://www.w3.org/1999/xlink"
   xmlns:sodipodi="http://sodipodi.sourceforge.net/DTD/sodipodi-0.dtd"
   xmlns:inkscape="http://www.inkscape.org/namespaces/inkscape"
   version="1.1"
   id="svg2"
   width="19.031864"
   height="11.015102"
   viewBox="0 0 19.031864 11.015102"
   sodipodi:docname="slider-vert-hover.svg"
   inkscape:version="0.92.3 (2405546, 2018-03-11)">
  <sodipodi:namedview
     pagecolor="#ffffff"
     bordercolor="#666666"
     borderopacity="1"
     objecttolerance="10"
     gridtolerance="10"
     guidetolerance="10"
     inkscape:pageopacity="0"
     inkscape:pageshadow="2"
     inkscape:window-width="1920"
     inkscape:window-height="991"
     id="namedview4"
     showgrid="false"
     showguides="true"
     inkscape:guide-bbox="true"
     inkscape:measure-start="9.45313,9.57812"
     inkscape:measure-end="8.45313,9.57813"
     inkscape:zoom="45.254834"
     inkscape:cx="8.6506432"
     inkscape:cy="0.99184547"
     inkscape:window-x="0"
     inkscape:window-y="0"
     inkscape:window-maximized="1"
     inkscape:current-layer="svg2" />
  <metadata
     id="metadata8">
    <rdf:RDF>
      <cc:Work
         rdf:about="">
        <dc:format>image/svg+xml</dc:format>
        <dc:type
           rdf:resource="http://purl.org/dc/dcmitype/StillImage" />
        <dc:title></dc:title>
      </cc:Work>
    </rdf:RDF>
  </metadata>
  <defs
     id="defs6">
    <linearGradient
       id="linearGradient857"
       inkscape:collect="always">
      <stop
         id="stop853"
         offset="0"
         style="stop-color:#b0dff9;stop-opacity:1" />
      <stop
         style="stop-color:#bce6fd;stop-opacity:1"
         offset="0.14180042"
         id="stop887" />
      <stop
         style="stop-color:#bce5fd;stop-opacity:1"
         offset="0.33367684"
         id="stop863" />
      <stop
         id="stop865"
         offset="0.47376096"
         style="stop-color:#dcf2fc;stop-opacity:1" />
      <stop
         id="stop855"
         offset="1"
         style="stop-color:#e7f6fd;stop-opacity:1" />
    </linearGradient>
    <linearGradient
       gradientUnits="userSpaceOnUse"
       y2="-0.020842303"
       x2="7.1760292"
       y1="22.131414"
       x1="7.1760292"
       id="linearGradient859"
       xlink:href="#linearGradient857"
       inkscape:collect="always" />
  </defs>
  <g
     id="g5626"
     transform="matrix(0,-0.74967724,0.74967724,0,0.0120243,10.995266)">
    <path
       sodipodi:nodetypes="ssccccscs"
       inkscape:connector-curvature="0"
       id="path5630"
       d="M 3.5880145,21.599162 C 0.4230595,18.29566 0,16.801503 0,8.927041 L 1.3333325,1.3333326 7.3333335,0 13.332528,1.3333326 14.666667,9.0838779 c -1e-6,9.5940861 -0.358064,9.4269251 -3.745319,12.6721211 l -3.7453189,3.588242 z"
       style="fill:url(#linearGradient859);fill-opacity:1;stroke-width:1.33333325" />
  </g>
  <path
     sodipodi:nodetypes="cccccccc"
     inkscape:connector-curvature="0"
     id="rect869"
     d="m 1.5067521,8.7886414 c -0.00112,-6.232198 -1.39e-5,-1.090572 -0.00112,-7.3305806 3.9531785,0.0015 8.7527639,0.019435 12.1663869,0.015625 L 17.261524,5.6363349 13.743146,9.4845724 2.1917518,9.4731854 C 1.4198032,9.5569954 1.5067421,8.7886394 1.5067421,8.7886394 Z"
     style="opacity:1;fill:none;fill-opacity:0;stroke:#41f7fd;stroke-width:1.07567608;stroke-miterlimit:4;stroke-dasharray:none;stroke-opacity:1;paint-order:stroke fill markers" />
  <path
     sodipodi:nodetypes="csscssccccsscssccss"
     inkscape:connector-curvature="0"
     id="path5628"
     d="m 14.002445,11.015102 h -12.0185 c -0.9843757,0 -1.9638533,-0.999569 -1.96832,-1.9995686 L 0,5.5174691 0.00391,2.0121968 C 0.00502,1.0200093 0.9995731,0.01138134 1.987855,0.01202334 l 12.916937,0.00308 4.127073,4.87846276 -0.03186,0.7418185 z M 1.9887669,1.0200093 C 1.5000003,1.0200093 0.99957,1.50729 0.99957,2.0159909 l -10e-8,3.5014782 10e-8,3.4947693 c 0,0.498958 0.5004303,1.0032946 0.9891969,1.0032946 H 14.002445 L 18.007366,5.6353966 C 15.410349,2.6735261 14.002952,1.0200093 14.002952,1.0200093 c -4.0324619,-6.04e-4 -8.0094566,0 -12.0141851,0 z"
     style="opacity:1;fill:#338eba;fill-opacity:1;stroke-width:0.99956959" />
</svg>
